<?xml version="1.0" standalone="no"?>
<!DOCTYPE svg PUBLIC "-//W3C//DTD SVG 20010904//EN"
 "http://www.w3.org/TR/2001/REC-SVG-20010904/DTD/svg10.dtd">
<svg version="1.0" xmlns="http://www.w3.org/2000/svg"
 width="1200.000000pt" height="1200.000000pt" viewBox="0 0 1200.000000 1200.000000"
 preserveAspectRatio="xMidYMid meet">
<metadata>
Created by potrace 1.14, written by Peter Selinger 2001-2017
</metadata>
<g transform="translate(0.000000,1200.000000) scale(0.100000,-0.100000)"
fill="#000000" stroke="none">
<path d="M6778 10885 c-2 -2 -30 -6 -63 -9 -290 -29 -538 -156 -823 -421 -116
-108 -137 -126 -180 -156 -53 -38 -299 -179 -311 -179 -5 0 -11 -3 -13 -8 -1
-4 -48 -34 -103 -66 -195 -116 -636 -418 -665 -456 -3 -3 -15 -13 -27 -21 -79
-54 -335 -294 -451 -423 -61 -68 -185 -231 -239 -315 -192 -297 -300 -620
-307 -916 -1 -55 -4 -54 79 -41 28 4 58 9 67 10 10 1 20 4 22 7 3 3 21 61 41
129 99 351 281 653 559 930 119 119 119 119 246 220 93 74 299 216 340 233 8
4 38 20 65 37 196 120 556 264 814 326 123 30 132 31 226 39 271 20 439 24
507 11 91 -17 122 -89 132 -310 13 -273 -58 -421 -357 -750 -15 -17 -54 -64
-85 -103 -54 -69 -59 -73 -99 -74 -24 -1 -46 -2 -50 -3 -5 -1 -35 -6 -68 -10
-72 -10 -162 -38 -229 -72 -152 -79 -353 -293 -450 -480 l-27 -52 -102 -21
c-114 -24 -139 -29 -182 -36 -16 -3 -37 -8 -45 -10 -8 -2 -31 -7 -50 -10 -19
-3 -62 -12 -95 -21 -74 -18 -102 -24 -140 -30 -63 -11 -243 -56 -300 -75 -95
-33 -254 -114 -325 -165 -173 -126 -292 -279 -373 -479 -42 -103 -52 -142 -73
-262 -28 -169 -22 -396 17 -582 10 -49 4 -146 -16 -265 -6 -32 -24 -146 -30
-188 -3 -21 -7 -53 -10 -70 -6 -44 -52 -307 -59 -338 -6 -31 -64 -354 -70
-395 -2 -16 -7 -50 -11 -75 -4 -25 -8 -56 -10 -70 -3 -14 -7 -45 -10 -70 -3
-25 -7 -54 -9 -65 -7 -35 -20 -150 -18 -157 1 -4 -3 -31 -8 -60 -5 -29 -12
-89 -15 -132 -4 -43 -8 -86 -10 -95 -3 -15 -11 -97 -21 -216 -2 -27 -6 -70 -9
-95 -2 -25 -8 -88 -11 -140 -4 -52 -8 -108 -9 -125 -1 -16 -6 -91 -10 -165 -9
-158 -7 -144 -29 -195 -9 -22 -29 -69 -43 -105 -15 -36 -46 -96 -70 -133 -239
-374 -453 -840 -744 -1628 -62 -167 -116 -306 -119 -309 -4 -3 -24 -48 -44
-100 -21 -52 -41 -104 -46 -115 -5 -11 -30 -74 -55 -140 -26 -66 -48 -121 -50
-123 -1 -1 -40 -13 -86 -26 l-84 -23 -1 3641 0 3641 -23 47 c-37 77 -108 117
-211 121 -27 1 -50 6 -50 11 0 14 72 148 113 211 46 69 128 173 182 229 31 33
36 44 31 70 -9 46 -42 69 -86 61 -19 -4 -35 -8 -35 -8 -1 -5 -131 -163 -141
-172 -6 -5 -31 -37 -55 -70 -24 -33 -46 -62 -49 -65 -12 -11 -90 -169 -118
-240 -76 -192 -95 -312 -107 -691 -2 -75 -5 -140 -6 -145 -4 -23 3 -42 21 -62
17 -18 24 -20 45 -10 41 19 54 63 60 209 10 243 12 256 52 394 11 38 66 104
98 119 47 23 70 20 107 -13 l33 -29 3 -3650 2 -3650 -67 -38 c-127 -70 -228
-146 -332 -253 l-105 -106 682 -3 682 -2 30 32 c17 18 70 91 118 163 47 72 93
138 102 147 8 9 33 46 55 82 22 36 88 141 146 233 356 565 573 985 754 1458
85 225 104 271 153 375 24 52 50 109 57 125 36 79 234 701 319 1000 91 323
235 937 261 1115 4 24 8 47 10 50 2 3 6 23 9 45 4 22 16 87 27 145 11 58 22
121 25 140 3 19 7 42 9 50 5 18 9 48 35 295 11 105 23 215 26 245 4 30 6 65 6
78 0 21 17 44 19 25 0 -4 2 -17 4 -28 2 -11 6 -40 9 -65 7 -60 24 -179 31
-210 3 -14 7 -38 10 -55 3 -16 13 -65 21 -107 13 -60 14 -83 5 -109 -18 -52
-13 -78 20 -111 24 -25 38 -59 74 -182 48 -166 98 -315 150 -446 30 -76 47
-135 61 -210 6 -33 42 -195 55 -245 5 -22 16 -71 23 -110 8 -38 23 -116 35
-173 11 -56 23 -115 26 -130 3 -15 7 -38 10 -52 12 -56 43 -218 51 -270 3 -19
12 -71 19 -115 8 -44 19 -111 25 -150 5 -38 12 -83 15 -100 13 -75 16 -95 23
-151 4 -32 6 -111 5 -174 -1 -63 -3 -185 -4 -270 -2 -138 0 -163 20 -230 21
-65 23 -94 22 -212 -1 -76 -4 -145 -5 -155 -2 -10 -7 -63 -11 -118 -4 -55 -8
-113 -10 -130 -3 -16 -7 -59 -10 -95 -3 -36 -8 -81 -10 -100 -3 -19 -7 -66
-10 -105 -4 -38 -8 -81 -10 -95 -2 -14 -7 -59 -10 -100 -3 -41 -7 -91 -10
-110 -2 -19 -7 -64 -10 -100 -3 -36 -8 -81 -10 -100 -3 -19 -7 -62 -10 -95
-10 -124 -16 -191 -20 -215 -2 -14 -7 -56 -10 -95 -4 -38 -8 -87 -11 -107 -2
-20 -6 -68 -10 -107 l-6 -71 1687 0 1686 0 -6 33 c-3 17 -12 82 -20 142 -23
165 -95 646 -100 675 -4 18 -3 21 4 10 14 -25 83 -371 125 -635 15 -88 29
-175 32 -192 5 -31 8 -33 44 -33 31 0 40 4 40 18 0 33 -71 438 -111 637 -23
110 -42 206 -43 214 -2 8 3 26 10 41 19 37 44 193 47 293 4 102 -7 232 -29
342 -34 176 -135 472 -201 594 -14 25 -38 69 -53 96 -22 39 -40 112 -83 335
-59 299 -92 481 -102 565 -4 28 -8 61 -11 75 -2 14 -6 48 -9 75 -12 104 -20
125 -49 125 -36 0 -49 -23 -41 -72 10 -70 13 -90 20 -153 4 -33 9 -67 10 -77
20 -103 7 -79 -20 37 -46 201 -44 273 14 480 94 336 212 654 368 998 38 85
235 476 293 582 18 33 50 94 73 135 22 41 51 92 64 112 12 21 23 40 23 44 0 3
17 36 39 72 21 37 56 99 77 137 20 39 46 84 56 100 l18 30 1 -105 c0 -58 2
-123 4 -145 1 -22 6 -141 10 -265 4 -124 9 -261 10 -305 2 -44 6 -174 10 -290
9 -287 19 -530 30 -710 18 -305 28 -442 40 -575 2 -25 7 -81 10 -125 4 -44 8
-91 10 -105 2 -14 7 -52 10 -85 4 -33 9 -73 11 -90 12 -104 17 -329 19 -930 2
-374 5 -705 8 -735 3 -30 8 -98 12 -151 3 -53 8 -107 10 -120 2 -13 6 -63 10
-111 3 -48 8 -98 10 -110 2 -13 7 -50 10 -83 5 -49 27 -222 39 -310 2 -11 7
-47 11 -80 4 -33 11 -76 15 -95 15 -64 25 -154 24 -232 l0 -78 363 0 363 0 1
33 c1 75 7 155 13 192 4 22 14 83 22 135 16 106 20 130 34 210 5 30 12 70 15
88 3 17 7 44 10 60 2 15 7 50 11 77 3 28 8 52 9 55 2 3 7 37 10 75 4 38 9 78
11 90 27 138 22 516 -11 815 -2 25 -7 74 -10 110 -3 36 -8 85 -10 110 -11 123
-16 178 -20 210 -2 19 -7 73 -10 120 -4 47 -8 101 -10 120 -24 230 -24 664 1
933 7 78 18 541 18 747 0 199 -12 669 -19 800 -2 36 -6 115 -9 175 -6 117 -13
227 -22 338 -3 37 -1 67 3 68 18 3 123 6 205 8 l87 1 -5 623 c-4 656 -5 667
-34 817 -10 52 -21 109 -23 125 -7 43 -53 267 -88 425 -126 570 -295 1024
-507 1360 -34 54 -131 190 -142 200 -3 3 -27 33 -53 67 -26 34 -53 68 -60 75
-7 7 -48 56 -92 108 -43 52 -158 174 -255 270 -148 149 -223 217 -385 348
-126 102 -363 252 -530 335 -369 184 -878 324 -1275 353 -89 6 -368 13 -372 9z
m1469 -7727 c-3 -7 -5 -2 -5 12 0 14 2 19 5 13 2 -7 2 -19 0 -25z"/>
</g>
</svg>
