<?xml version="1.0" standalone="no"?>
<!DOCTYPE svg PUBLIC "-//W3C//DTD SVG 20010904//EN"
 "http://www.w3.org/TR/2001/REC-SVG-20010904/DTD/svg10.dtd">
<svg version="1.0" xmlns="http://www.w3.org/2000/svg"
 width="744.000000pt" height="744.000000pt" viewBox="0 0 744.000000 744.000000"
 preserveAspectRatio="xMidYMid meet">
<metadata>
Created by potrace 1.14, written by Peter Selinger 2001-2017
</metadata>
<g transform="translate(0.000000,744.000000) scale(0.100000,-0.100000)"
fill="#000000" stroke="none">
<path d="M4027 7340 c-3 -8 -10 -56 -16 -105 -28 -229 -70 -280 -266 -320 -44
-9 -81 -17 -82 -19 -2 -2 23 -6 54 -9 199 -21 260 -88 297 -327 18 -111 26
-135 26 -79 0 59 48 250 75 294 31 54 102 91 207 110 64 11 69 13 43 20 -16 4
-57 14 -89 22 -154 38 -184 81 -225 318 -10 61 -21 103 -24 95z"/>
<path d="M5383 6889 c-179 -23 -475 -141 -729 -290 -179 -105 -353 -230 -557
-402 l-45 -38 -59 54 c-32 31 -86 77 -120 105 -372 297 -702 483 -981 553
-120 30 -263 24 -344 -13 -73 -34 -143 -106 -180 -184 -27 -57 -58 -186 -58
-240 0 -21 2 -23 27 -13 15 6 55 9 88 8 l60 -3 6 50 c24 193 170 274 386 214
241 -67 638 -306 959 -577 l82 -69 -151 -145 c-190 -182 -377 -391 -522 -584
-117 -156 -220 -307 -249 -362 l-16 -32 52 -30 c29 -16 58 -34 65 -40 7 -6 16
-11 21 -11 4 0 48 57 97 128 222 317 379 507 626 755 108 108 202 197 208 197
21 0 414 -403 543 -557 162 -194 377 -485 442 -598 l18 -31 -59 -94 c-67 -108
-79 -132 -58 -124 13 6 90 -38 111 -63 12 -14 23 -4 93 87 11 14 21 23 24 20
2 -3 36 -62 75 -132 176 -316 323 -680 372 -919 35 -170 15 -249 -77 -305
l-51 -30 29 -23 c15 -12 31 -32 35 -44 3 -11 15 -29 24 -40 16 -17 23 -18 53
-8 57 19 120 83 153 153 27 58 29 72 28 173 0 89 -6 134 -32 235 -75 297 -232
655 -434 993 l-71 117 35 53 c252 379 506 937 602 1322 78 311 47 526 -98 670
-103 103 -236 139 -423 114z m225 -194 c53 -22 106 -82 133 -154 19 -50 21
-70 16 -181 -6 -136 -22 -209 -88 -410 -102 -308 -250 -626 -447 -957 -30 -51
-56 -93 -58 -93 -1 0 -31 42 -65 93 -210 312 -512 673 -773 924 -126 121 -135
132 -117 144 10 8 83 63 161 123 204 155 392 276 565 361 151 75 345 146 445
164 73 13 176 6 228 -14z"/>
<path d="M5062 6232 c-13 -98 -43 -196 -70 -225 -9 -10 -30 -26 -46 -34 -38
-20 -154 -53 -183 -53 -47 0 -21 -17 35 -24 175 -20 227 -79 266 -301 14 -82
17 -81 31 10 15 99 48 185 84 221 39 37 115 66 211 79 l55 8 -94 19 c-185 37
-217 74 -256 291 -9 53 -18 97 -19 97 -1 0 -7 -39 -14 -88z"/>
<path d="M2322 6350 c-89 -54 -105 -177 -35 -261 89 -105 266 -61 304 76 19
66 -25 156 -92 190 -42 22 -137 19 -177 -5z m137 -55 c19 -19 8 -31 -44 -44
-34 -9 -48 -18 -61 -43 -12 -24 -18 -28 -25 -17 -25 40 1 103 51 122 21 8 62
-1 79 -18z"/>
<path d="M3127 6290 c-3 -14 -11 -59 -17 -100 -15 -99 -48 -171 -91 -197 -19
-11 -74 -31 -124 -44 l-90 -24 65 -7 c158 -18 218 -79 245 -246 14 -88 17 -89
31 -8 8 43 23 99 35 125 39 88 81 115 209 135 l75 12 -68 13 c-172 30 -215 79
-250 286 -10 57 -16 73 -20 55z"/>
<path d="M2481 5943 c-33 -22 -51 -27 -98 -25 -27 1 -26 -8 18 -173 44 -163
103 -323 176 -475 53 -111 66 -132 74 -117 6 9 14 15 20 12 5 -4 9 -3 9 2 0 9
70 33 96 33 9 0 14 6 11 13 -3 6 -35 85 -71 175 -36 90 -96 256 -132 370 -36
114 -66 207 -67 208 -1 0 -17 -10 -36 -23z"/>
<path d="M1647 5920 c-4 -19 -12 -64 -18 -100 -21 -128 -70 -171 -215 -187
l-69 -8 85 -6 c105 -9 360 -8 460 0 l75 6 -59 8 c-97 13 -144 28 -172 56 -34
34 -42 56 -64 171 -15 83 -18 91 -23 60z"/>
<path d="M6311 5818 c-12 -166 -59 -418 -90 -480 -48 -96 -110 -128 -336 -173
l-109 -22 69 -7 c124 -13 236 -36 274 -56 101 -51 136 -142 182 -480 l13 -95
13 95 c35 270 61 364 116 426 53 61 117 84 302 108 95 12 98 13 55 20 -117 18
-243 51 -286 75 -96 53 -133 131 -164 349 -32 224 -38 258 -39 240z"/>
<path d="M2884 5506 c-59 -26 -68 -116 -17 -156 61 -48 153 -8 153 65 0 47
-14 71 -50 90 -35 18 -46 18 -86 1z"/>
<path d="M1130 5434 c-296 -40 -491 -147 -575 -318 -46 -91 -60 -181 -46 -276
11 -70 58 -203 70 -198 3 2 34 18 68 36 34 17 69 32 78 32 20 0 19 15 -4 83
-48 139 -34 226 52 311 65 65 139 100 281 134 104 25 126 26 361 26 193 1 276
-4 365 -17 164 -26 391 -72 503 -102 52 -14 99 -25 104 -25 4 0 8 21 8 48 0
26 2 52 5 57 4 6 6 17 5 25 0 8 3 18 8 21 13 9 -227 77 -411 115 -291 61 -633
80 -872 48z"/>
<path d="M3930 5290 c-240 -41 -426 -222 -474 -462 -82 -403 217 -761 614
-734 231 15 406 130 508 332 44 86 62 168 62 274 0 173 -52 302 -170 421 -142
144 -335 204 -540 169z m186 -294 c60 -28 126 -93 157 -156 18 -37 22 -62 22
-145 0 -110 -8 -134 -72 -212 -137 -170 -419 -139 -528 58 -27 49 -30 62 -30
149 0 113 21 169 88 238 51 53 85 72 157 89 69 16 141 8 206 -21z"/>
<path d="M1654 4976 c-185 -45 -328 -216 -363 -436 -7 -41 -11 -311 -11 -722
l0 -658 -22 0 c-50 1 -210 41 -257 64 -61 31 -93 72 -120 153 -21 61 -54 245
-67 373 -9 84 -22 121 -23 64 -1 -66 -38 -324 -56 -394 -42 -163 -101 -207
-337 -254 -60 -11 -108 -24 -108 -27 0 -3 33 -9 73 -12 99 -9 224 -42 267 -72
76 -53 101 -121 137 -360 33 -229 35 -234 44 -150 16 131 51 320 71 375 27 72
59 114 111 144 46 26 140 52 229 62 l57 7 3 -719 3 -719 24 -64 c69 -185 250
-311 448 -311 42 0 220 20 397 45 667 94 747 105 766 105 19 0 20 -7 20 -155
0 -116 -3 -157 -12 -160 -7 -3 -93 -18 -192 -35 l-179 -30 -83 55 c-136 89
-125 86 -234 65 -52 -9 -112 -21 -133 -24 l-39 -7 74 -51 c40 -29 109 -76 153
-106 150 -103 155 -108 155 -160 1 -75 16 -123 52 -158 52 -53 748 -572 796
-594 23 -11 66 -25 94 -31 95 -21 77 -26 748 209 1130 395 1558 549 1596 572
80 50 71 162 -19 214 -42 24 -317 129 -650 247 -241 85 -286 99 -337 105 -39
5 -706 -85 -763 -102 -16 -5 -17 5 -15 142 l3 148 245 33 c863 114 880 117
948 152 95 49 175 155 201 271 12 51 14 226 5 318 l-7 62 -31 -6 c-52 -10 -71
-11 -82 -2 -14 10 -24 -77 -24 -198 0 -107 -26 -181 -85 -240 -60 -60 -71 -62
-485 -114 -229 -29 -492 -63 -1930 -255 -311 -42 -635 -85 -720 -96 -174 -24
-257 -21 -316 9 -57 29 -118 100 -143 166 l-21 58 2 1391 3 1392 32 67 c37 78
97 142 162 172 40 18 63 21 176 20 72 0 226 -10 344 -23 151 -16 217 -19 224
-12 8 8 7 11 -3 11 -11 0 -11 3 -2 12 7 7 12 23 12 37 0 14 9 35 20 46 l21 22
-58 11 c-138 27 -574 73 -678 71 -33 0 -83 -6 -111 -13z m3351 -3761 c50 -19
162 -62 250 -95 88 -34 186 -71 217 -82 31 -11 62 -25 68 -32 29 -36 71 -21
-1165 -424 -798 -261 -832 -272 -882 -281 -72 -14 -127 6 -234 84 -285 208
-508 379 -514 392 -9 24 20 60 57 71 18 6 245 51 503 102 259 50 715 140 1015
200 300 59 556 106 570 103 14 -2 66 -20 115 -38z"/>
<path d="M4870 1191 c-30 -8 -39 -38 -14 -48 23 -8 124 27 124 44 0 14 -64 17
-110 4z"/>
<path d="M4710 1145 c0 -34 114 -51 127 -19 9 23 -15 34 -74 34 -40 0 -53 -4
-53 -15z"/>
<path d="M4971 1144 c-33 -14 -33 -15 -16 -34 21 -24 62 -26 110 -6 35 15 45
33 23 40 -40 13 -88 12 -117 0z"/>
<path d="M4587 1123 c-17 -16 -4 -33 32 -44 31 -9 47 -9 70 1 36 14 39 25 12
40 -22 11 -104 14 -114 3z"/>
<path d="M4832 1098 c-19 -19 -14 -28 23 -44 31 -13 39 -13 64 1 17 8 32 19
36 24 16 26 -99 43 -123 19z"/>
<path d="M4438 1093 c-44 -11 -5 -53 50 -53 36 0 92 19 92 31 0 23 -86 37
-142 22z"/>
<path d="M5094 1080 c-33 -13 -37 -28 -13 -41 25 -13 107 -7 153 10 23 9 26
14 16 26 -14 17 -119 20 -156 5z"/>
<path d="M4707 1062 c-24 -17 -26 -20 -12 -32 16 -13 102 -7 118 9 11 11 -11
27 -48 35 -21 4 -39 0 -58 -12z"/>
<path d="M4335 1065 c-5 -2 -27 -6 -47 -10 -49 -8 -50 -31 -3 -51 31 -13 41
-13 87 2 l51 17 -29 24 c-28 22 -38 25 -59 18z"/>
<path d="M5276 1041 c-3 -5 -27 -14 -53 -21 l-48 -12 24 -19 c39 -32 68 -33
147 -9 41 13 74 27 74 31 0 9 -94 39 -121 39 -10 0 -20 -4 -23 -9z"/>
<path d="M4543 1028 c-27 -13 -30 -33 -7 -42 25 -10 104 -7 125 4 27 15 24 26
-12 39 -39 14 -77 13 -106 -1z"/>
<path d="M4943 1033 c-19 -7 -16 -41 5 -47 57 -16 83 -16 111 -1 17 8 31 19
31 24 0 23 -107 41 -147 24z"/>
<path d="M4103 1018 c-46 -10 -53 -23 -25 -44 21 -17 73 -18 123 -2 45 13 48
21 17 42 -25 18 -52 19 -115 4z"/>
<path d="M4390 988 c-46 -13 -46 -14 -25 -38 22 -24 40 -25 113 -4 l56 17 -23
18 c-25 21 -66 23 -121 7z"/>
<path d="M3893 976 c-56 -15 -59 -20 -26 -46 30 -23 74 -22 150 4 l36 12 -28
22 c-30 24 -65 26 -132 8z"/>
<path d="M4665 964 c-27 -9 -55 -22 -61 -30 -6 -7 -14 -11 -17 -7 -10 9 -63 6
-103 -7 -34 -12 -35 -13 -18 -31 21 -23 80 -25 131 -4 19 8 61 15 92 15 58 1
152 28 158 46 4 13 -63 34 -103 33 -16 0 -51 -7 -79 -15z"/>
<path d="M5080 967 c-46 -16 -45 -39 2 -51 28 -7 51 -5 94 9 l57 18 -34 18
c-39 21 -70 23 -119 6z"/>
<path d="M4210 949 c-66 -19 -65 -18 -47 -37 21 -20 115 -22 161 -3 27 11 28
13 14 27 -19 20 -83 26 -128 13z"/>
<path d="M3655 926 l-90 -21 38 -29 38 -29 77 18 c105 24 102 23 102 35 0 10
-59 51 -70 49 -3 -1 -45 -11 -95 -23z"/>
<path d="M4870 909 c-41 -11 -76 -22 -78 -24 -5 -4 82 -55 94 -55 15 0 149 43
158 51 9 8 -64 49 -86 48 -7 0 -47 -9 -88 -20z"/>
<path d="M4010 903 c-8 -3 -26 -10 -40 -15 l-25 -10 24 -19 c26 -21 67 -24
126 -8 57 16 72 29 49 46 -18 13 -105 17 -134 6z"/>
<path d="M3372 870 c-40 -9 -76 -20 -79 -24 -4 -4 7 -20 23 -37 l30 -30 107
28 c59 15 107 30 107 33 0 13 -69 50 -91 49 -13 -1 -57 -9 -97 -19z"/>
<path d="M4296 871 l-39 -17 26 -17 c30 -20 65 -21 122 -6 71 18 71 18 40 39
-37 24 -96 25 -149 1z"/>
<path d="M4555 839 c-77 -21 -187 -51 -245 -66 -58 -14 -111 -28 -119 -30 -8
-2 4 -16 30 -37 85 -64 63 -66 337 20 136 42 251 80 256 84 4 5 -12 17 -37 28
-24 11 -48 25 -51 31 -10 15 -14 15 -171 -30z"/>
<path d="M3765 847 c-44 -12 -82 -23 -84 -24 -2 -2 9 -14 25 -28 33 -29 44
-29 170 9 l79 23 -35 22 c-42 25 -52 25 -155 -2z"/>
<path d="M4139 836 c-25 -7 -54 -18 -64 -23 -17 -10 -16 -13 16 -32 41 -25 38
-25 129 -5 67 15 71 18 54 31 -10 7 -27 20 -37 28 -20 18 -36 18 -98 1z"/>
<path d="M3053 807 c-56 -13 -93 -26 -93 -34 0 -6 15 -23 33 -37 l32 -25 99
25 c54 13 107 24 117 24 28 0 23 26 -10 49 -35 25 -58 25 -178 -2z"/>
<path d="M3490 783 c-52 -13 -97 -26 -99 -29 -2 -2 6 -16 20 -30 21 -23 29
-25 68 -19 59 9 169 43 176 55 5 8 -52 51 -65 49 -3 0 -48 -12 -100 -26z"/>
<path d="M3945 785 c-5 -2 -36 -11 -67 -20 -66 -18 -74 -36 -28 -60 27 -14 36
-13 107 6 110 30 114 33 72 58 -31 19 -59 25 -84 16z"/>
<path d="M3163 713 c-57 -14 -103 -28 -103 -33 0 -4 16 -20 36 -35 l36 -27 92
26 c50 14 101 26 112 26 34 0 36 12 7 42 -32 34 -45 34 -180 1z"/>
<path d="M3605 702 c-55 -15 -102 -28 -104 -30 -3 -1 9 -17 27 -35 l32 -32 88
23 c48 12 104 27 126 33 l39 11 -44 29 c-24 16 -48 28 -54 28 -5 -1 -55 -13
-110 -27z"/>
<path d="M4016 694 c-44 -13 -81 -26 -83 -28 -2 -2 23 -25 56 -50 l60 -46 93
26 c51 15 97 30 102 34 9 9 -112 90 -134 89 -8 0 -51 -11 -94 -25z"/>
<path d="M3275 623 c-55 -14 -102 -28 -105 -30 -6 -5 35 -38 72 -58 25 -14 36
-13 135 16 59 17 110 33 113 36 11 10 -65 63 -90 62 -14 0 -70 -12 -125 -26z"/>
<path d="M3568 571 c-147 -42 -268 -79 -268 -83 0 -3 26 -27 58 -52 67 -54 83
-56 197 -22 231 70 421 129 427 135 8 7 -125 102 -139 100 -5 -1 -128 -35
-275 -78z"/>
<path d="M717 4646 c-82 -34 -140 -86 -174 -154 -25 -50 -28 -68 -28 -152 0
-87 3 -100 30 -149 64 -115 174 -176 305 -169 127 7 221 67 276 176 25 49 29
68 29 142 0 71 -4 94 -27 142 -74 159 -251 229 -411 164z m191 -76 c35 -16 42
-24 42 -48 l0 -30 -73 -4 c-106 -5 -165 -43 -228 -148 -16 -27 -30 10 -26 72
2 42 10 65 31 92 58 77 167 105 254 66z"/>
<path d="M2753 4640 c-75 -34 -104 -118 -67 -196 45 -94 200 -100 259 -10 47
71 18 168 -60 206 -51 25 -78 25 -132 0z"/>
<path d="M1769 4626 c-20 -14 -45 -42 -55 -63 -18 -37 -19 -84 -22 -1213 -2
-846 0 -1190 8 -1228 14 -65 58 -115 118 -133 46 -13 188 1 1337 136 209 25
704 81 1099 125 542 61 730 85 761 99 81 36 108 106 103 276 l-3 109 -35 10
c-169 44 -412 137 -570 216 -99 49 -336 192 -419 253 l-75 54 -110 -82 c-227
-168 -436 -292 -695 -410 -286 -131 -468 -180 -636 -173 -87 4 -111 9 -168 36
-295 138 -301 520 -20 1182 51 119 169 365 205 425 l24 40 -32 45 c-44 61 -67
136 -62 204 4 64 16 58 -157 76 -468 49 -545 51 -596 16z"/>
<path d="M5789 4573 c9 -17 8 -39 -3 -124 l-4 -36 126 -78 c471 -290 832 -658
898 -917 28 -107 8 -181 -69 -265 -78 -85 -212 -159 -404 -223 -247 -82 -490
-115 -806 -108 l-212 4 -1 -63 c-1 -34 -7 -69 -13 -77 -19 -23 74 -31 354 -30
210 0 271 4 379 22 511 88 846 270 936 508 95 255 -52 555 -449 918 -93 85
-301 244 -421 321 -72 47 -281 157 -308 163 -9 2 -10 -3 -3 -15z"/>
<path d="M3246 4253 c-3 -7 -26 -18 -51 -24 -27 -7 -45 -17 -45 -26 0 -24 50
-102 157 -243 136 -180 252 -308 424 -466 l142 -131 36 34 c60 54 84 60 143
32 27 -13 58 -33 67 -46 l18 -22 114 103 c164 149 331 323 440 461 126 158
194 259 150 220 -15 -13 -34 -19 -54 -17 -46 4 -97 22 -97 33 0 6 -5 7 -10 4
-6 -4 -7 -11 -4 -17 4 -6 2 -8 -3 -5 -6 4 -53 -42 -104 -101 -51 -59 -196
-209 -322 -334 l-229 -228 -101 89 c-190 166 -418 416 -575 628 -52 70 -84 89
-96 56z"/>
<path d="M5105 4244 c-20 -41 -192 -279 -293 -407 -62 -78 -193 -219 -320
-345 -118 -118 -210 -217 -206 -222 46 -44 356 -204 522 -269 117 -47 301
-106 307 -99 3 3 4 310 3 684 -2 461 -6 672 -13 658z"/>
<path d="M5962 4151 c-20 -112 -56 -151 -168 -181 l-69 -18 50 -1 c63 -1 133
-35 157 -76 9 -16 23 -61 31 -100 l14 -70 11 50 c29 135 73 183 174 192 63 6
61 15 -7 28 -60 10 -113 42 -131 78 -10 17 -25 61 -34 97 l-17 65 -11 -64z"/>
<path d="M2626 3968 c-174 -357 -270 -653 -283 -874 -10 -170 26 -255 127
-307 53 -27 60 -28 160 -24 126 6 219 30 390 100 221 90 593 294 713 391 l28
22 -63 50 c-165 128 -431 422 -599 659 -45 64 -84 117 -88 119 -3 2 -29 -1
-58 -7 -43 -9 -64 -7 -130 10 -43 11 -86 23 -95 27 -15 7 -31 -19 -102 -166z
m344 -138 c0 -51 55 -119 97 -120 12 0 25 -4 28 -10 3 -5 -3 -10 -15 -10 -54
0 -110 -57 -110 -112 0 -13 -5 -30 -10 -38 -7 -11 -10 -7 -10 18 0 73 -46 132
-103 132 -16 0 -26 4 -22 10 3 6 17 10 31 10 33 0 72 44 87 97 12 45 27 58 27
23z"/>
<path d="M6513 3691 c-23 -124 -66 -171 -177 -193 l-61 -12 71 -12 c38 -6 80
-18 93 -25 35 -22 61 -72 75 -146 14 -71 16 -70 35 12 26 110 67 151 160 162
28 3 48 10 45 14 -3 5 -13 9 -22 9 -41 0 -98 24 -128 54 -29 29 -41 58 -73
174 -5 17 -9 8 -18 -37z"/>
<path d="M5255 3617 c-27 -27 -35 -43 -35 -72 0 -48 44 -95 90 -95 131 0 146
176 17 197 -32 5 -41 1 -72 -30z"/>
<path d="M5717 2415 c-3 -11 -8 -36 -11 -56 -10 -56 -40 -87 -104 -106 l-57
-17 43 -6 c74 -11 95 -34 130 -150 2 -8 9 3 16 26 28 90 59 119 136 127 l35 3
-30 8 c-98 25 -122 49 -140 136 -8 38 -14 49 -18 35z"/>
<path d="M3625 2136 c-62 -28 -115 -110 -115 -178 0 -103 106 -187 199 -157
82 26 140 100 141 180 0 113 -125 199 -225 155z"/>
<path d="M5274 1728 c-4 -18 -9 -37 -10 -43 -1 -5 -10 -27 -19 -49 -9 -21 -15
-39 -13 -41 2 -2 91 -12 198 -24 571 -63 934 -141 1155 -247 145 -70 210 -143
185 -205 -48 -115 -389 -248 -811 -316 l-107 -17 -6 -50 c-12 -103 -11 -106
35 -106 59 0 235 27 369 56 363 80 633 219 699 359 43 91 18 203 -64 294 -97
107 -329 208 -645 281 -211 49 -626 112 -892 135 l-66 5 -8 -32z"/>
<path d="M1120 1457 c-341 -149 -441 -348 -261 -520 118 -113 328 -185 633
-219 109 -12 751 -19 761 -8 3 3 -7 42 -22 87 l-26 82 -255 1 c-270 0 -431 10
-570 36 -102 18 -240 59 -295 86 -52 26 -115 87 -115 111 0 58 85 125 242 189
l106 44 -25 29 c-13 17 -35 49 -49 73 -14 23 -31 42 -37 42 -7 0 -46 -15 -87
-33z"/>
<path d="M5980 1403 c-146 -24 -232 -112 -201 -206 17 -51 86 -109 190 -162
111 -55 184 -76 278 -77 116 -2 207 53 229 140 12 44 -16 111 -68 162 -108
106 -288 166 -428 143z m53 -144 c82 -42 167 -126 167 -166 0 -27 -30 -11 -74
41 -25 30 -70 71 -99 92 -28 21 -56 41 -61 46 -19 16 26 8 67 -13z"/>
</g>
</svg>
